<svg width="238" height="223" viewBox="0 0 238 223" fill="none" xmlns="http://www.w3.org/2000/svg">
<path d="M226.844 40.363L122.719 3.19631C120.339 2.30431 117.661 2.30431 115.281 3.19631L11.1562 40.363C6.7679 41.9981 3.71875 46.1608 3.71875 50.8438V172.156C3.7932 176.839 6.7679 181.076 11.1562 182.637L115.281 219.804C117.661 220.696 120.339 220.696 122.719 219.804L226.844 182.637C229.67 181.596 232.05 179.515 233.24 176.765C233.909 175.352 234.207 173.791 234.281 172.156V50.8439C234.281 46.1608 231.232 41.9242 226.844 40.363ZM107.844 193.49L26.0312 164.277V66.6769L107.844 95.89V193.49Z" fill="#10B981"/>
<path d="M43.517 141V123.545H55.0739V126.588H47.2074V130.747H54.3068V133.79H47.2074V141H43.517ZM57.277 141V127.909H60.7969V130.193H60.9332C61.1719 129.381 61.5724 128.767 62.1349 128.352C62.6974 127.932 63.3452 127.722 64.0781 127.722C64.2599 127.722 64.456 127.733 64.6662 127.756C64.8764 127.778 65.0611 127.81 65.2202 127.849V131.071C65.0497 131.02 64.8139 130.974 64.5128 130.935C64.2116 130.895 63.9361 130.875 63.6861 130.875C63.152 130.875 62.6747 130.991 62.2543 131.224C61.8395 131.452 61.5099 131.77 61.2656 132.179C61.027 132.588 60.9077 133.06 60.9077 133.594V141H57.277ZM72.4027 141.256C71.0788 141.256 69.9339 140.974 68.968 140.412C68.0078 139.844 67.2663 139.054 66.7436 138.043C66.2209 137.026 65.9595 135.847 65.9595 134.506C65.9595 133.153 66.2209 131.972 66.7436 130.96C67.2663 129.943 68.0078 129.153 68.968 128.591C69.9339 128.023 71.0788 127.739 72.4027 127.739C73.7266 127.739 74.8686 128.023 75.8288 128.591C76.7947 129.153 77.5391 129.943 78.0618 130.96C78.5845 131.972 78.8459 133.153 78.8459 134.506C78.8459 135.847 78.5845 137.026 78.0618 138.043C77.5391 139.054 76.7947 139.844 75.8288 140.412C74.8686 140.974 73.7266 141.256 72.4027 141.256ZM72.4197 138.443C73.022 138.443 73.5249 138.273 73.9283 137.932C74.3317 137.585 74.6357 137.114 74.8402 136.517C75.0504 135.92 75.1555 135.241 75.1555 134.48C75.1555 133.719 75.0504 133.04 74.8402 132.443C74.6357 131.847 74.3317 131.375 73.9283 131.028C73.5249 130.682 73.022 130.509 72.4197 130.509C71.8118 130.509 71.3004 130.682 70.8857 131.028C70.4766 131.375 70.1669 131.847 69.9567 132.443C69.7521 133.04 69.6499 133.719 69.6499 134.48C69.6499 135.241 69.7521 135.92 69.9567 136.517C70.1669 137.114 70.4766 137.585 70.8857 137.932C71.3004 138.273 71.8118 138.443 72.4197 138.443ZM84.8374 133.432V141H81.2067V127.909H84.6669V130.219H84.8203C85.1101 129.457 85.5959 128.855 86.2777 128.412C86.9595 127.963 87.7862 127.739 88.7578 127.739C89.6669 127.739 90.4595 127.938 91.1357 128.335C91.8118 128.733 92.3374 129.301 92.7124 130.04C93.0874 130.773 93.2749 131.648 93.2749 132.665V141H89.6442V133.312C89.6499 132.511 89.4453 131.886 89.0305 131.438C88.6158 130.983 88.0447 130.756 87.3175 130.756C86.8288 130.756 86.397 130.861 86.022 131.071C85.6527 131.281 85.3629 131.588 85.1527 131.991C84.9482 132.389 84.843 132.869 84.8374 133.432ZM103.099 127.909V130.636H95.2159V127.909H103.099ZM97.0057 124.773H100.636V136.977C100.636 137.312 100.688 137.574 100.79 137.761C100.892 137.943 101.034 138.071 101.216 138.145C101.403 138.219 101.619 138.256 101.864 138.256C102.034 138.256 102.205 138.241 102.375 138.213C102.545 138.179 102.676 138.153 102.767 138.136L103.338 140.838C103.156 140.895 102.901 140.96 102.571 141.034C102.241 141.114 101.841 141.162 101.369 141.179C100.494 141.213 99.7273 141.097 99.0682 140.83C98.4148 140.562 97.9063 140.148 97.5426 139.585C97.179 139.023 97 138.312 97.0057 137.455V124.773Z" fill="#10B981"/>
<path d="M43.517 141V123.545H55.0739V126.588H47.2074V130.747H54.3068V133.79H47.2074V141H43.517ZM57.277 141V127.909H60.7969V130.193H60.9332C61.1719 129.381 61.5724 128.767 62.1349 128.352C62.6974 127.932 63.3452 127.722 64.0781 127.722C64.2599 127.722 64.456 127.733 64.6662 127.756C64.8764 127.778 65.0611 127.81 65.2202 127.849V131.071C65.0497 131.02 64.8139 130.974 64.5128 130.935C64.2116 130.895 63.9361 130.875 63.6861 130.875C63.152 130.875 62.6747 130.991 62.2543 131.224C61.8395 131.452 61.5099 131.77 61.2656 132.179C61.027 132.588 60.9077 133.06 60.9077 133.594V141H57.277ZM72.4027 141.256C71.0788 141.256 69.9339 140.974 68.968 140.412C68.0078 139.844 67.2663 139.054 66.7436 138.043C66.2209 137.026 65.9595 135.847 65.9595 134.506C65.9595 133.153 66.2209 131.972 66.7436 130.96C67.2663 129.943 68.0078 129.153 68.968 128.591C69.9339 128.023 71.0788 127.739 72.4027 127.739C73.7266 127.739 74.8686 128.023 75.8288 128.591C76.7947 129.153 77.5391 129.943 78.0618 130.96C78.5845 131.972 78.8459 133.153 78.8459 134.506C78.8459 135.847 78.5845 137.026 78.0618 138.043C77.5391 139.054 76.7947 139.844 75.8288 140.412C74.8686 140.974 73.7266 141.256 72.4027 141.256ZM72.4197 138.443C73.022 138.443 73.5249 138.273 73.9283 137.932C74.3317 137.585 74.6357 137.114 74.8402 136.517C75.0504 135.92 75.1555 135.241 75.1555 134.48C75.1555 133.719 75.0504 133.04 74.8402 132.443C74.6357 131.847 74.3317 131.375 73.9283 131.028C73.5249 130.682 73.022 130.509 72.4197 130.509C71.8118 130.509 71.3004 130.682 70.8857 131.028C70.4766 131.375 70.1669 131.847 69.9567 132.443C69.7521 133.04 69.6499 133.719 69.6499 134.48C69.6499 135.241 69.7521 135.92 69.9567 136.517C70.1669 137.114 70.4766 137.585 70.8857 137.932C71.3004 138.273 71.8118 138.443 72.4197 138.443ZM84.8374 133.432V141H81.2067V127.909H84.6669V130.219H84.8203C85.1101 129.457 85.5959 128.855 86.2777 128.412C86.9595 127.963 87.7862 127.739 88.7578 127.739C89.6669 127.739 90.4595 127.938 91.1357 128.335C91.8118 128.733 92.3374 129.301 92.7124 130.04C93.0874 130.773 93.2749 131.648 93.2749 132.665V141H89.6442V133.312C89.6499 132.511 89.4453 131.886 89.0305 131.438C88.6158 130.983 88.0447 130.756 87.3175 130.756C86.8288 130.756 86.397 130.861 86.022 131.071C85.6527 131.281 85.3629 131.588 85.1527 131.991C84.9482 132.389 84.843 132.869 84.8374 133.432ZM103.099 127.909V130.636H95.2159V127.909H103.099ZM97.0057 124.773H100.636V136.977C100.636 137.312 100.688 137.574 100.79 137.761C100.892 137.943 101.034 138.071 101.216 138.145C101.403 138.219 101.619 138.256 101.864 138.256C102.034 138.256 102.205 138.241 102.375 138.213C102.545 138.179 102.676 138.153 102.767 138.136L103.338 140.838C103.156 140.895 102.901 140.96 102.571 141.034C102.241 141.114 101.841 141.162 101.369 141.179C100.494 141.213 99.7273 141.097 99.0682 140.83C98.4148 140.562 97.9063 140.148 97.5426 139.585C97.179 139.023 97 138.312 97.0057 137.455V124.773Z" fill="#10B981"/>
<path d="M113.517 141V123.545H120.506C121.79 123.545 122.861 123.736 123.719 124.116C124.577 124.497 125.222 125.026 125.653 125.702C126.085 126.372 126.301 127.145 126.301 128.02C126.301 128.702 126.165 129.301 125.892 129.818C125.619 130.33 125.244 130.75 124.767 131.08C124.295 131.403 123.756 131.634 123.148 131.77V131.94C123.813 131.969 124.435 132.156 125.014 132.503C125.599 132.849 126.074 133.335 126.438 133.96C126.801 134.58 126.983 135.318 126.983 136.176C126.983 137.102 126.753 137.929 126.293 138.656C125.838 139.378 125.165 139.949 124.273 140.369C123.381 140.79 122.281 141 120.974 141H113.517ZM117.207 137.983H120.216C121.244 137.983 121.994 137.787 122.466 137.395C122.938 136.997 123.173 136.469 123.173 135.81C123.173 135.327 123.057 134.901 122.824 134.531C122.591 134.162 122.259 133.872 121.827 133.662C121.401 133.452 120.892 133.347 120.301 133.347H117.207V137.983ZM117.207 130.849H119.943C120.449 130.849 120.898 130.761 121.29 130.585C121.688 130.403 122 130.148 122.227 129.818C122.46 129.489 122.577 129.094 122.577 128.634C122.577 128.003 122.352 127.494 121.903 127.108C121.46 126.722 120.83 126.528 120.011 126.528H117.207V130.849ZM135.231 141.256C133.907 141.256 132.762 140.974 131.796 140.412C130.836 139.844 130.094 139.054 129.572 138.043C129.049 137.026 128.788 135.847 128.788 134.506C128.788 133.153 129.049 131.972 129.572 130.96C130.094 129.943 130.836 129.153 131.796 128.591C132.762 128.023 133.907 127.739 135.231 127.739C136.555 127.739 137.697 128.023 138.657 128.591C139.623 129.153 140.367 129.943 140.89 130.96C141.413 131.972 141.674 133.153 141.674 134.506C141.674 135.847 141.413 137.026 140.89 138.043C140.367 139.054 139.623 139.844 138.657 140.412C137.697 140.974 136.555 141.256 135.231 141.256ZM135.248 138.443C135.85 138.443 136.353 138.273 136.756 137.932C137.16 137.585 137.464 137.114 137.668 136.517C137.879 135.92 137.984 135.241 137.984 134.48C137.984 133.719 137.879 133.04 137.668 132.443C137.464 131.847 137.16 131.375 136.756 131.028C136.353 130.682 135.85 130.509 135.248 130.509C134.64 130.509 134.129 130.682 133.714 131.028C133.305 131.375 132.995 131.847 132.785 132.443C132.58 133.04 132.478 133.719 132.478 134.48C132.478 135.241 132.58 135.92 132.785 136.517C132.995 137.114 133.305 137.585 133.714 137.932C134.129 138.273 134.64 138.443 135.248 138.443ZM146.6 127.909L149.004 132.486L151.467 127.909H155.191L151.398 134.455L155.293 141H151.586L149.004 136.474L146.464 141H142.714L146.6 134.455L142.85 127.909H146.6Z" fill="#10B981"/>
<path d="M113.517 141V123.545H120.506C121.79 123.545 122.861 123.736 123.719 124.116C124.577 124.497 125.222 125.026 125.653 125.702C126.085 126.372 126.301 127.145 126.301 128.02C126.301 128.702 126.165 129.301 125.892 129.818C125.619 130.33 125.244 130.75 124.767 131.08C124.295 131.403 123.756 131.634 123.148 131.77V131.94C123.813 131.969 124.435 132.156 125.014 132.503C125.599 132.849 126.074 133.335 126.438 133.96C126.801 134.58 126.983 135.318 126.983 136.176C126.983 137.102 126.753 137.929 126.293 138.656C125.838 139.378 125.165 139.949 124.273 140.369C123.381 140.79 122.281 141 120.974 141H113.517ZM117.207 137.983H120.216C121.244 137.983 121.994 137.787 122.466 137.395C122.938 136.997 123.173 136.469 123.173 135.81C123.173 135.327 123.057 134.901 122.824 134.531C122.591 134.162 122.259 133.872 121.827 133.662C121.401 133.452 120.892 133.347 120.301 133.347H117.207V137.983ZM117.207 130.849H119.943C120.449 130.849 120.898 130.761 121.29 130.585C121.688 130.403 122 130.148 122.227 129.818C122.46 129.489 122.577 129.094 122.577 128.634C122.577 128.003 122.352 127.494 121.903 127.108C121.46 126.722 120.83 126.528 120.011 126.528H117.207V130.849ZM135.231 141.256C133.907 141.256 132.762 140.974 131.796 140.412C130.836 139.844 130.094 139.054 129.572 138.043C129.049 137.026 128.788 135.847 128.788 134.506C128.788 133.153 129.049 131.972 129.572 130.96C130.094 129.943 130.836 129.153 131.796 128.591C132.762 128.023 133.907 127.739 135.231 127.739C136.555 127.739 137.697 128.023 138.657 128.591C139.623 129.153 140.367 129.943 140.89 130.96C141.413 131.972 141.674 133.153 141.674 134.506C141.674 135.847 141.413 137.026 140.89 138.043C140.367 139.054 139.623 139.844 138.657 140.412C137.697 140.974 136.555 141.256 135.231 141.256ZM135.248 138.443C135.85 138.443 136.353 138.273 136.756 137.932C137.16 137.585 137.464 137.114 137.668 136.517C137.879 135.92 137.984 135.241 137.984 134.48C137.984 133.719 137.879 133.04 137.668 132.443C137.464 131.847 137.16 131.375 136.756 131.028C136.353 130.682 135.85 130.509 135.248 130.509C134.64 130.509 134.129 130.682 133.714 131.028C133.305 131.375 132.995 131.847 132.785 132.443C132.58 133.04 132.478 133.719 132.478 134.48C132.478 135.241 132.58 135.92 132.785 136.517C132.995 137.114 133.305 137.585 133.714 137.932C134.129 138.273 134.64 138.443 135.248 138.443ZM146.6 127.909L149.004 132.486L151.467 127.909H155.191L151.398 134.455L155.293 141H151.586L149.004 136.474L146.464 141H142.714L146.6 134.455L142.85 127.909H146.6Z" fill="white"/>
</svg>
